<svg xmlns="http://www.w3.org/2000/svg" viewBox="0 0 1600 1000" preserveAspectRatio="xMidYMid slice">
  <defs>
    <linearGradient id="wall" x1="0" x2="1" y1="0" y2="1">
      <stop offset="0%" stop-color="#8a847b"/>
      <stop offset="100%" stop-color="#5a544d"/>
    </linearGradient>
    <linearGradient id="panel" x1="0" x2="0" y1="0" y2="1">
      <stop offset="0%" stop-color="#6f6a63"/>
      <stop offset="100%" stop-color="#4d4740"/>
    </linearGradient>
    <linearGradient id="stone" x1="0" x2="1" y1="0" y2="0">
      <stop offset="0%" stop-color="#8c8880"/>
      <stop offset="100%" stop-color="#69645d"/>
    </linearGradient>
    <linearGradient id="floor" x1="0" x2="1" y1="0" y2="0">
      <stop offset="0%" stop-color="#b5b0a7"/>
      <stop offset="100%" stop-color="#8f8a82"/>
    </linearGradient>
    <radialGradient id="spot" cx="50%" cy="50%" r="60%">
      <stop offset="0%" stop-color="rgba(255,255,255,0.85)"/>
      <stop offset="100%" stop-color="rgba(255,255,255,0)"/>
    </radialGradient>
    <filter id="shadow" x="-20%" y="-20%" width="140%" height="140%">
      <feDropShadow dx="0" dy="18" stdDeviation="20" flood-opacity=".18"/>
    </filter>
  </defs>

  <rect width="1600" height="1000" fill="url(#wall)"/>
  <rect x="0" y="0" width="880" height="760" fill="url(#panel)"/>
  <g opacity=".45">
    <rect x="50" y="0" width="10" height="760" fill="#2b2926"/>
    <rect x="115" y="0" width="4" height="760" fill="#b1aba2"/>
    <rect x="170" y="0" width="10" height="760" fill="#2b2926"/>
    <rect x="235" y="0" width="4" height="760" fill="#b1aba2"/>
    <rect x="290" y="0" width="10" height="760" fill="#2b2926"/>
    <rect x="355" y="0" width="4" height="760" fill="#b1aba2"/>
    <rect x="410" y="0" width="10" height="760" fill="#2b2926"/>
    <rect x="475" y="0" width="4" height="760" fill="#b1aba2"/>
    <rect x="530" y="0" width="10" height="760" fill="#2b2926"/>
    <rect x="595" y="0" width="4" height="760" fill="#b1aba2"/>
    <rect x="650" y="0" width="10" height="760" fill="#2b2926"/>
    <rect x="715" y="0" width="4" height="760" fill="#b1aba2"/>
    <rect x="770" y="0" width="10" height="760" fill="#2b2926"/>
  </g>

  <rect x="1000" y="80" width="440" height="620" fill="#7f7972"/>
  <rect x="1050" y="80" width="340" height="620" fill="#6f6a63"/>
  <rect x="1120" y="120" width="160" height="520" fill="#b4b8b2" opacity=".75"/>

  <rect x="140" y="290" width="160" height="170" fill="#d1cbc2" opacity=".3" stroke="#201f1d" stroke-width="8"/>
  <rect x="390" y="270" width="125" height="205" fill="#d1cbc2" opacity=".18" stroke="#201f1d" stroke-width="6"/>
  <rect x="610" y="335" width="100" height="140" fill="#d1cbc2" opacity=".14" stroke="#201f1d" stroke-width="4"/>

  <circle cx="245" cy="320" r="44" fill="url(#spot)" opacity=".68"/>
  <circle cx="640" cy="360" r="44" fill="url(#spot)" opacity=".68"/>
  <circle cx="1180" cy="160" r="60" fill="url(#spot)" opacity=".74"/>
  <circle cx="1310" cy="160" r="52" fill="url(#spot)" opacity=".62"/>

  <rect x="0" y="760" width="1600" height="240" fill="url(#floor)"/>

  <g filter="url(#shadow)">
    <rect x="160" y="650" width="500" height="90" rx="4" fill="url(#stone)"/>
    <rect x="190" y="570" width="440" height="110" rx="18" fill="#d4d1cc"/>
    <rect x="215" y="540" width="165" height="52" rx="22" fill="#efeeeb"/>
    <rect x="440" y="540" width="165" height="52" rx="22" fill="#efeeeb"/>
    <rect x="185" y="740" width="90" height="110" fill="#7a746d"/>
    <rect x="280" y="740" width="90" height="110" fill="#857f77"/>
    <rect x="375" y="740" width="90" height="110" fill="#7a746d"/>
    <rect x="470" y="740" width="90" height="110" fill="#857f77"/>
    <rect x="565" y="740" width="90" height="110" fill="#7a746d"/>
  </g>

  <g opacity=".85">
    <path d="M718 618l58 242h-28l-42-176-12 26-16-10z" fill="#1e1d1b"/>
    <path d="M1290 680l-12 160 36 0-8-132z" fill="#e6e1db"/>
    <path d="M1320 658l48 210h-26l-38-148-26 148h-24l40-210z" fill="#f3efea"/>
  </g>

  <g opacity=".92">
    <rect x="40" y="700" width="120" height="135" rx="18" fill="#ebedf0"/>
    <rect x="70" y="645" width="58" height="48" rx="20" fill="#f5f6f8"/>
    <rect x="88" y="730" width="26" height="72" rx="10" fill="#dfe3e8"/>
  </g>
</svg>
